<?xml version="1.0" encoding="us-ascii" standalone="no"?><svg xmlns="http://www.w3.org/2000/svg" xmlns:xlink="http://www.w3.org/1999/xlink" contentStyleType="text/css" height="447px" preserveAspectRatio="none" style="width:824px;height:447px;background:#FFFFFF;" version="1.1" viewBox="0 0 824 447" width="824px" zoomAndPan="magnify"><defs/><g><!--cluster TurboWin--><g id="cluster_TurboWin"><rect fill="none" height="311" rx="2.5" ry="2.5" style="stroke:#181818;stroke-width:1.0;" width="154" x="295.5" y="130"/><text fill="#000000" font-family="sans-serif" font-size="14" font-weight="bold" lengthAdjust="spacing" textLength="76" x="334.5" y="146.9659">TurboWin+</text></g><!--entity UI--><g id="elem_UI"><rect fill="#F1F1F1" height="39.0679" rx="2.5" ry="2.5" style="stroke:#181818;stroke-width:0.5;" width="116" x="316.5" y="168"/><text fill="#000000" font-family="sans-serif" font-size="14" lengthAdjust="spacing" textLength="96" x="326.5" y="192.9659">User Interface</text></g><!--entity QC--><g id="elem_QC"><rect fill="#F1F1F1" height="39.0679" rx="2.5" ry="2.5" style="stroke:#181818;stroke-width:0.5;" width="121" x="312" y="268"/><text fill="#000000" font-family="sans-serif" font-size="14" lengthAdjust="spacing" textLength="101" x="322" y="292.9659">Quality Control</text></g><!--entity Storage--><g id="elem_Storage"><rect fill="#F1F1F1" height="39.0679" rx="2.5" ry="2.5" style="stroke:#181818;stroke-width:0.5;" width="107" x="319" y="386"/><text fill="#000000" font-family="sans-serif" font-size="14" lengthAdjust="spacing" textLength="87" x="329" y="410.9659">Data Storage</text></g><!--entity Vaisala--><g id="elem_Vaisala"><rect fill="#F1F1F1" height="58.1358" rx="2.5" ry="2.5" style="stroke:#181818;stroke-width:0.5;" width="129" x="7" y="7"/><text fill="#000000" font-family="sans-serif" font-size="14" lengthAdjust="spacing" textLength="105" x="17" y="31.9659">Vaisala PTB330/</text><text fill="#000000" font-family="sans-serif" font-size="14" lengthAdjust="spacing" textLength="109" x="17" y="51.0339">PTB220/HMP155</text></g><!--entity Mintaka--><g id="elem_Mintaka"><rect fill="#F1F1F1" height="58.1358" rx="2.5" ry="2.5" style="stroke:#181818;stroke-width:0.5;" width="110" x="171.5" y="7"/><text fill="#000000" font-family="sans-serif" font-size="14" lengthAdjust="spacing" textLength="90" x="181.5" y="31.9659">Mintaka Duo/</text><text fill="#000000" font-family="sans-serif" font-size="14" lengthAdjust="spacing" textLength="67" x="181.5" y="51.0339">Star/StarX</text></g><!--entity EUCAWS--><g id="elem_EUCAWS"><rect fill="#F1F1F1" height="39.0679" rx="2.5" ry="2.5" style="stroke:#181818;stroke-width:0.5;" width="77" x="741" y="386"/><text fill="#000000" font-family="sans-serif" font-size="14" lengthAdjust="spacing" textLength="57" x="751" y="410.9659">EUCAWS</text></g><!--entity OMC--><g id="elem_OMC"><rect fill="#F1F1F1" height="39.0679" rx="2.5" ry="2.5" style="stroke:#181818;stroke-width:0.5;" width="116" x="316.5" y="16.5"/><text fill="#000000" font-family="sans-serif" font-size="14" lengthAdjust="spacing" textLength="96" x="326.5" y="41.4659">OMC-140 AWS</text></g><!--entity GPS--><g id="elem_GPS"><rect fill="#F1F1F1" height="39.0679" rx="2.5" ry="2.5" style="stroke:#181818;stroke-width:0.5;" width="111" x="468" y="16.5"/><text fill="#000000" font-family="sans-serif" font-size="14" lengthAdjust="spacing" textLength="91" x="478" y="41.4659">GPS Interface</text></g><!--entity Observations--><g id="elem_Observations"><rect fill="#F1F1F1" height="39.0679" rx="2.5" ry="2.5" style="stroke:#181818;stroke-width:0.5;" width="159" x="614" y="16.5"/><text fill="#000000" font-family="sans-serif" font-size="14" lengthAdjust="spacing" textLength="139" x="624" y="41.4659">Human observations</text></g><!--entity Email--><g id="elem_Email"><rect fill="#F1F1F1" height="39.0679" rx="2.5" ry="2.5" style="stroke:#181818;stroke-width:0.5;" width="104" x="465.5" y="386"/><text fill="#000000" font-family="sans-serif" font-size="14" lengthAdjust="spacing" textLength="84" x="475.5" y="410.9659">Email Server</text></g><!--entity HTTP--><g id="elem_HTTP"><rect fill="#F1F1F1" height="39.0679" rx="2.5" ry="2.5" style="stroke:#181818;stroke-width:0.5;" width="101" x="605" y="386"/><text fill="#000000" font-family="sans-serif" font-size="14" lengthAdjust="spacing" textLength="81" x="615" y="410.9659">HTTP Server</text></g><!--link Vaisala to UI--><g id="link_Vaisala_UI"><path d="M111.91,65.12 C135.16,80.62 165.28,99.59 193.5,114 C234.96,135.16 278.4541,152.4518 315.0641,165.8218 " fill="none" id="Vaisala-to-UI" style="stroke:#181818;stroke-width:1.0;"/><polygon fill="#181818" points="320.7,167.88,313.6183,161.0354,316.0034,166.1648,310.874,168.5499,320.7,167.88" style="stroke:#181818;stroke-width:1.0;"/><text fill="#000000" font-family="sans-serif" font-size="13" lengthAdjust="spacing" textLength="72" x="194.5" y="109.897">Sensor Data</text></g><!--link Mintaka to UI--><g id="link_Mintaka_UI"><path d="M249.13,65.26 C261.48,80.19 277.3,98.57 292.5,114 C311.57,133.36 330.3263,149.8502 347.2263,164.0502 " fill="none" id="Mintaka-to-UI" style="stroke:#181818;stroke-width:1.0;"/><polygon fill="#181818" points="351.82,167.91,347.5027,159.0579,347.9919,164.6935,342.3563,165.1828,351.82,167.91" style="stroke:#181818;stroke-width:1.0;"/><text fill="#000000" font-family="sans-serif" font-size="13" lengthAdjust="spacing" textLength="72" x="293.5" y="109.897">Sensor Data</text></g><!--link EUCAWS to UI--><g id="link_EUCAWS_UI"><path d="M761.46,385.91 C746.59,371.31 724.47,351.16 702.5,337 C611.99,278.68 500.4234,233.675 433.4234,209.115 " fill="none" id="EUCAWS-to-UI" style="stroke:#181818;stroke-width:1.0;"/><polygon fill="#181818" points="427.79,207.05,434.8635,213.9032,432.4845,208.7709,437.6168,206.3919,427.79,207.05" style="stroke:#181818;stroke-width:1.0;"/><text fill="#000000" font-family="sans-serif" font-size="13" lengthAdjust="spacing" textLength="72" x="652.5" y="292.897">Sensor Data</text></g><!--link OMC to UI--><g id="link_OMC_UI"><path d="M374.5,55.63 C374.5,84.28 374.5,132.84 374.5,161.63 " fill="none" id="OMC-to-UI" style="stroke:#181818;stroke-width:1.0;"/><polygon fill="#181818" points="374.5,167.63,378.5,158.63,374.5,162.63,370.5,158.63,374.5,167.63" style="stroke:#181818;stroke-width:1.0;"/><text fill="#000000" font-family="sans-serif" font-size="13" lengthAdjust="spacing" textLength="72" x="375.5" y="109.897">Sensor Data</text></g><!--link GPS to UI--><g id="link_GPS_UI"><path d="M508.44,55.65 C495.27,71.63 475.35,95 456.5,114 C437.36,133.29 418.6088,149.7843 401.7288,164.0043 " fill="none" id="GPS-to-UI" style="stroke:#181818;stroke-width:1.0;"/><polygon fill="#181818" points="397.14,167.87,406.6002,165.1307,400.964,164.6486,401.446,159.0123,397.14,167.87" style="stroke:#181818;stroke-width:1.0;"/><text fill="#000000" font-family="sans-serif" font-size="13" lengthAdjust="spacing" textLength="83" x="475.5" y="109.897">Location Data</text></g><!--link Observations to UI--><g id="link_Observations_UI"><path d="M666.33,55.69 C641.37,72.34 602.98,96.69 567.5,114 C523.59,135.42 477.3202,152.6772 438.3802,165.9272 " fill="none" id="Observations-to-UI" style="stroke:#181818;stroke-width:1.0;"/><polygon fill="#181818" points="432.7,167.86,442.5088,168.7476,437.4335,166.2494,439.9317,161.1741,432.7,167.86" style="stroke:#181818;stroke-width:1.0;"/><text fill="#000000" font-family="sans-serif" font-size="13" lengthAdjust="spacing" textLength="78" x="601.5" y="109.897">Entered Data</text></g><!--link UI to QC--><g id="link_UI_QC"><path d="M374.11,207.4 C373.76,224.86 373.3512,244.6612 373.0012,261.9912 " fill="none" id="UI-to-QC" style="stroke:#181818;stroke-width:1.0;"/><polygon fill="#181818" points="372.88,267.99,377.0609,259.0726,372.981,262.991,369.0625,258.9111,372.88,267.99" style="stroke:#181818;stroke-width:1.0;"/></g><!--link QC to Storage--><g id="link_QC_Storage"><path d="M372.5,307.14 C372.5,328.78 372.5,358.28 372.5,379.91 " fill="none" id="QC-to-Storage" style="stroke:#181818;stroke-width:1.0;"/><polygon fill="#181818" points="372.5,385.91,376.5,376.91,372.5,380.91,368.5,376.91,372.5,385.91" style="stroke:#181818;stroke-width:1.0;"/></g><!--link QC to EUCAWS--><g id="link_QC_EUCAWS"><path d="M433,304.36 C503.16,322.96 622.14,355.2 723.5,386 C729.08,387.7 729.2503,387.7162 735.0103,389.5762 " fill="none" id="QC-to-EUCAWS" style="stroke:#181818;stroke-width:1.0;"/><polygon fill="#181818" points="740.72,391.42,733.3846,384.8479,735.9619,389.8835,730.9263,392.4608,740.72,391.42" style="stroke:#181818;stroke-width:1.0;"/><text fill="#000000" font-family="sans-serif" font-size="13" lengthAdjust="spacing" textLength="74" x="619.5" y="351.897">Obervations</text></g><!--link QC to Email--><g id="link_QC_Email"><path d="M395.8,307.14 C422.86,328.78 462.5453,360.5312 489.5753,382.1612 " fill="none" id="QC-to-Email" style="stroke:#181818;stroke-width:1.0;"/><polygon fill="#181818" points="494.26,385.91,489.7321,377.1637,490.3561,382.786,484.7337,383.4099,494.26,385.91" style="stroke:#181818;stroke-width:1.0;"/></g><!--link QC to HTTP--><g id="link_QC_HTTP"><path d="M417.66,307.01 C470.4,328.63 551.6085,361.914 604.4885,383.594 " fill="none" id="QC-to-HTTP" style="stroke:#181818;stroke-width:1.0;"/><polygon fill="#181818" points="610.04,385.87,603.2301,378.7549,605.4137,383.9733,600.1953,386.157,610.04,385.87" style="stroke:#181818;stroke-width:1.0;"/></g><!--SRC=[RP5DQyCm38Rl_XMYrr7IZ_NIms1BorfOM4gITOTTrCmhfebT76TGnlxx_9NM6RaOISzhsNhLd1W_eyGQIb6V1QTSPUfIKP2qLCYF5INaIc3qXgp12Y7Dd-RpIVJ1TJ2RJQ9DaauNYn5W0ruItaeOLtX2MBL2NyaKoiWSxrRlOQXV5_7ZFhFKXI5yJUBnz7u2dKBd8NvECzXoHUKNbjGATAKtGzxAWzWpVcTfby4F0GXKHKFblqR5jY_PjLWnTO5OS2L5PJMxkAzPeKB8b91uT4ryJ7vxVzgqDN8G1_teDoecUEDc2mezWsfa5MIQKUbiCeLUmpnFGu792UdMDnu_w6bWgHMy4HBCBqctfK7ezZ3Cz0Q6WTd55Ro8qWxY40b7kudMnd3wwJMwP8ZsTETUwCppgV_KKljqiwbZrX6VsEd_0000]--></g></svg>