<svg xmlns="http://www.w3.org/2000/svg" xmlns:xlink="http://www.w3.org/1999/xlink" contentStyleType="text/css" height="1152px" preserveAspectRatio="none" style="width:1299px;height:1152px;background:#FFFFFF;" version="1.1" viewBox="0 0 1299 1152" width="1299px" zoomAndPan="magnify"><title>GitLab CI Pipeline for TurboWinPlus</title><defs/><g><text fill="#000000" font-family="sans-serif" font-size="14" font-weight="bold" lengthAdjust="spacing" textLength="248.6951" x="523.7489" y="34.9659">GitLab CI Pipeline for TurboWinPlus</text><rect fill="#F1F1F1" height="36.3441" rx="12.5" ry="12.5" style="stroke:#181818;stroke-width:0.5;" width="214.5214" x="542.3357" y="51.0679"/><text fill="#000000" font-family="sans-serif" font-size="12" lengthAdjust="spacing" textLength="194.5214" x="552.3357" y="73.896">Code change pushed to repository</text><rect fill="none" height="186.0309" style="stroke:#000000;stroke-width:1.5;" width="557.7937" x="370.6996" y="97.412"/><path d="M455.0253,97.412 L455.0253,109.4799 L445.0253,119.4799 L370.6996,119.4799 " fill="none" style="stroke:#000000;stroke-width:1.5;"/><text fill="#000000" font-family="sans-serif" font-size="14" lengthAdjust="spacing" textLength="74.3257" x="373.6996" y="113.378">Build Stage</text><rect fill="#555555" height="6" rx="2.5" ry="2.5" style="stroke:#555555;stroke-width:1.0;" width="537.7937" x="380.6996" y="136.4799"/><path d="M463.0678,161.333 L463.0678,188.892 L443.0678,192.892 L463.0678,196.892 L463.0678,224.451 A0,0 0 0 0 463.0678,224.451 L606.1119,224.451 A0,0 0 0 0 606.1119,224.451 L606.1119,171.333 L596.1119,161.333 L463.0678,161.333 A0,0 0 0 0 463.0678,161.333 " fill="#FEFFDD" style="stroke:#181818;stroke-width:0.5;"/><path d="M596.1119,161.333 L596.1119,171.333 L606.1119,171.333 L596.1119,161.333 " fill="#FEFFDD" style="stroke:#181818;stroke-width:0.5;"/><text fill="#000000" font-family="sans-serif" font-size="13" lengthAdjust="spacing" textLength="122.0441" x="469.0678" y="180.23">On Debian (amd64):</text><text fill="#000000" font-family="sans-serif" font-size="13" lengthAdjust="spacing" textLength="102.9081" x="469.0678" y="197.936">- Install OpenJDK</text><text fill="#000000" font-family="sans-serif" font-size="13" lengthAdjust="spacing" textLength="110.0191" x="469.0678" y="215.642">- Run Gradle build</text><rect fill="#F1F1F1" height="36.3441" rx="12.5" ry="12.5" style="stroke:#181818;stroke-width:0.5;" width="48.3682" x="394.6996" y="174.7199"/><text fill="#000000" font-family="sans-serif" font-size="12" lengthAdjust="spacing" textLength="28.3682" x="404.6996" y="197.548">build</text><path d="M695.2921,152.4799 L695.2921,188.892 L675.2921,192.892 L695.2921,196.892 L695.2921,233.304 A0,0 0 0 0 695.2921,233.304 L904.4933,233.304 A0,0 0 0 0 904.4933,233.304 L904.4933,162.4799 L894.4933,152.4799 L695.2921,152.4799 A0,0 0 0 0 695.2921,152.4799 " fill="#FEFFDD" style="stroke:#181818;stroke-width:0.5;"/><path d="M894.4933,152.4799 L894.4933,162.4799 L904.4933,162.4799 L894.4933,152.4799 " fill="#FEFFDD" style="stroke:#181818;stroke-width:0.5;"/><text fill="#000000" font-family="sans-serif" font-size="13" lengthAdjust="spacing" textLength="122.0441" x="701.2921" y="171.377">On Debian (amd64):</text><text fill="#000000" font-family="sans-serif" font-size="13" lengthAdjust="spacing" textLength="179.2182" x="701.2921" y="189.083">- Install testing dependencies</text><text fill="#000000" font-family="sans-serif" font-size="13" lengthAdjust="spacing" textLength="134.4461" x="701.2921" y="206.789">- Set up virtual display</text><text fill="#000000" font-family="sans-serif" font-size="13" lengthAdjust="spacing" textLength="188.2012" x="701.2921" y="224.495">- Run tests with screen capture</text><rect fill="#F1F1F1" height="36.3441" rx="12.5" ry="12.5" style="stroke:#181818;stroke-width:0.5;" width="41.1802" x="634.1119" y="174.7199"/><text fill="#000000" font-family="sans-serif" font-size="12" lengthAdjust="spacing" textLength="21.1802" x="644.1119" y="197.548">test</text><rect fill="#555555" height="6" rx="2.5" ry="2.5" style="stroke:#555555;stroke-width:1.0;" width="537.7937" x="380.6996" y="265.4429"/><rect fill="none" height="201.0128" style="stroke:#000000;stroke-width:1.5;" width="1277.1929" x="11" y="293.4429"/><path d="M116.6196,293.4429 L116.6196,305.5109 L106.6196,315.5109 L11,315.5109 " fill="none" style="stroke:#000000;stroke-width:1.5;"/><text fill="#000000" font-family="sans-serif" font-size="14" lengthAdjust="spacing" textLength="95.6196" x="14" y="309.4089">Package Stage</text><rect fill="#555555" height="6" rx="2.5" ry="2.5" style="stroke:#555555;stroke-width:1.0;" width="1257.1929" x="21" y="332.5109"/><path d="M197.2488,348.5109 L197.2488,384.9229 L177.2488,388.9229 L197.2488,392.9229 L197.2488,429.3349 A0,0 0 0 0 197.2488,429.3349 L418.28,429.3349 A0,0 0 0 0 418.28,429.3349 L418.28,358.5109 L408.28,348.5109 L197.2488,348.5109 A0,0 0 0 0 197.2488,348.5109 " fill="#FEFFDD" style="stroke:#181818;stroke-width:0.5;"/><path d="M408.28,348.5109 L408.28,358.5109 L418.28,358.5109 L408.28,348.5109 " fill="#FEFFDD" style="stroke:#181818;stroke-width:0.5;"/><text fill="#000000" font-family="sans-serif" font-size="13" lengthAdjust="spacing" textLength="122.0441" x="203.2488" y="367.4079">On Debian (amd64):</text><text fill="#000000" font-family="sans-serif" font-size="13" lengthAdjust="spacing" textLength="200.0312" x="203.2488" y="385.1139">- Install packaging dependencies</text><text fill="#000000" font-family="sans-serif" font-size="13" lengthAdjust="spacing" textLength="90.7791" x="203.2488" y="402.8199">- Convert icons</text><text fill="#000000" font-family="sans-serif" font-size="13" lengthAdjust="spacing" textLength="161.7981" x="203.2488" y="420.5259">- Package for Linux amd64</text><rect fill="#F1F1F1" height="36.3441" rx="12.5" ry="12.5" style="stroke:#181818;stroke-width:0.5;" width="144.2488" x="33" y="370.7508"/><text fill="#000000" font-family="sans-serif" font-size="12" lengthAdjust="spacing" textLength="124.2488" x="43" y="393.5789">package_linux_amd64</text><path d="M595.1567,348.5109 L595.1567,384.9229 L575.1567,388.9229 L595.1567,392.9229 L595.1567,429.3349 A0,0 0 0 0 595.1567,429.3349 L816.1879,429.3349 A0,0 0 0 0 816.1879,429.3349 L816.1879,358.5109 L806.1879,348.5109 L595.1567,348.5109 A0,0 0 0 0 595.1567,348.5109 " fill="#FEFFDD" style="stroke:#181818;stroke-width:0.5;"/><path d="M806.1879,348.5109 L806.1879,358.5109 L816.1879,358.5109 L806.1879,348.5109 " fill="#FEFFDD" style="stroke:#181818;stroke-width:0.5;"/><text fill="#000000" font-family="sans-serif" font-size="13" lengthAdjust="spacing" textLength="105.3911" x="601.1567" y="367.4079">On Debian (i386):</text><text fill="#000000" font-family="sans-serif" font-size="13" lengthAdjust="spacing" textLength="200.0312" x="601.1567" y="385.1139">- Install packaging dependencies</text><text fill="#000000" font-family="sans-serif" font-size="13" lengthAdjust="spacing" textLength="90.7791" x="601.1567" y="402.8199">- Convert icons</text><text fill="#000000" font-family="sans-serif" font-size="13" lengthAdjust="spacing" textLength="145.1451" x="601.1567" y="420.5259">- Package for Linux i386</text><rect fill="#F1F1F1" height="36.3441" rx="12.5" ry="12.5" style="stroke:#181818;stroke-width:0.5;" width="128.8767" x="446.28" y="370.7508"/><text fill="#000000" font-family="sans-serif" font-size="12" lengthAdjust="spacing" textLength="108.8767" x="456.28" y="393.5789">package_linux_i386</text><path d="M986.4406,357.3639 L986.4406,384.9229 L966.4406,388.9229 L986.4406,392.9229 L986.4406,420.4819 A0,0 0 0 0 986.4406,420.4819 L1266.1929,420.4819 A0,0 0 0 0 1266.1929,420.4819 L1266.1929,367.3639 L1256.1929,357.3639 L986.4406,357.3639 A0,0 0 0 0 986.4406,357.3639 " fill="#FEFFDD" style="stroke:#181818;stroke-width:0.5;"/><path d="M1256.1929,357.3639 L1256.1929,367.3639 L1266.1929,367.3639 L1256.1929,357.3639 " fill="#FEFFDD" style="stroke:#181818;stroke-width:0.5;"/><text fill="#000000" font-family="sans-serif" font-size="13" lengthAdjust="spacing" textLength="202.7612" x="992.4406" y="376.2609">On Windows Server 2022 (64-bit):</text><text fill="#000000" font-family="sans-serif" font-size="13" lengthAdjust="spacing" textLength="258.7523" x="992.4406" y="393.9669">- Download JDK (32-bit and 64-bit) and WiX</text><text fill="#000000" font-family="sans-serif" font-size="13" lengthAdjust="spacing" textLength="215.7352" x="992.4406" y="411.6729">- Package for Windows x86 and x64</text><rect fill="#F1F1F1" height="36.3441" rx="12.5" ry="12.5" style="stroke:#181818;stroke-width:0.5;" width="122.2527" x="844.1879" y="370.7508"/><text fill="#000000" font-family="sans-serif" font-size="12" lengthAdjust="spacing" textLength="102.2527" x="854.1879" y="393.5789">package_windows</text><rect fill="#555555" height="6" rx="2.5" ry="2.5" style="stroke:#555555;stroke-width:1.0;" width="1257.1929" x="21" y="476.4557"/><rect fill="none" height="213.4221" style="stroke:#000000;stroke-width:1.5;" width="368.1499" x="585.7121" y="504.4557"/><path d="M650.2559,504.4557 L650.2559,516.5236 L640.2559,526.5236 L585.7121,526.5236 " fill="none" style="stroke:#000000;stroke-width:1.5;"/><text fill="#000000" font-family="sans-serif" font-size="14" lengthAdjust="spacing" textLength="54.5438" x="588.7121" y="520.4217">Artifacts</text><path d="M723.4808,536.5236 L723.4808,617.2007 L703.4808,621.2007 L723.4808,625.2007 L723.4808,705.8778 A0,0 0 0 0 723.4808,705.8778 L943.862,705.8778 A0,0 0 0 0 943.862,705.8778 L943.862,546.5236 L933.862,536.5236 L723.4808,536.5236 A0,0 0 0 0 723.4808,536.5236 " fill="#FEFFDD" style="stroke:#181818;stroke-width:0.5;"/><path d="M933.862,536.5236 L933.862,546.5236 L943.862,546.5236 L933.862,536.5236 " fill="#FEFFDD" style="stroke:#181818;stroke-width:0.5;"/><text fill="#000000" font-family="sans-serif" font-size="13" lengthAdjust="spacing" textLength="121.3421" x="729.4808" y="555.4207">Generated artifacts:</text><text fill="#000000" font-family="sans-serif" font-size="13" lengthAdjust="spacing" textLength="105.1701" x="729.4808" y="573.1267">- turbowin-4.5.jar</text><text fill="#000000" font-family="sans-serif" font-size="13" lengthAdjust="spacing" textLength="142.0121" x="729.4808" y="590.8327">- screen_capture.webm</text><text fill="#000000" font-family="sans-serif" font-size="13" lengthAdjust="spacing" textLength="199.3812" x="729.4808" y="608.5387">- turbowinplus_4.5-1_amd64.deb</text><text fill="#000000" font-family="sans-serif" font-size="13" lengthAdjust="spacing" textLength="197.7822" x="729.4808" y="626.2447">- turbowinplus-4.5-1.x86_64.rpm</text><text fill="#000000" font-family="sans-serif" font-size="13" lengthAdjust="spacing" textLength="182.7282" x="729.4808" y="643.9507">- turbowinplus_4.5-1_i386.deb</text><text fill="#000000" font-family="sans-serif" font-size="13" lengthAdjust="spacing" textLength="181.0512" x="729.4808" y="661.6568">- turbowinplus-4.5-1.i386.rpm</text><text fill="#000000" font-family="sans-serif" font-size="13" lengthAdjust="spacing" textLength="181.4542" x="729.4808" y="679.3628">- TurboWinPlus-4.5_64-bit.exe</text><text fill="#000000" font-family="sans-serif" font-size="13" lengthAdjust="spacing" textLength="181.4542" x="729.4808" y="697.0688">- TurboWinPlus-4.5_32-bit.exe</text><rect fill="#F1F1F1" height="36.3441" rx="12.5" ry="12.5" style="stroke:#181818;stroke-width:0.5;" width="107.7687" x="595.7121" y="603.0287"/><text fill="#000000" font-family="sans-serif" font-size="12" lengthAdjust="spacing" textLength="87.7687" x="605.7121" y="625.8568">Collect Artifacts</text><rect fill="none" height="357.5401" style="stroke:#000000;stroke-width:1.5;" width="539.4198" x="357.0984" y="727.8778"/><path d="M476.97,727.8778 L476.97,739.9457 L466.97,749.9457 L357.0984,749.9457 " fill="none" style="stroke:#000000;stroke-width:1.5;"/><text fill="#000000" font-family="sans-serif" font-size="14" lengthAdjust="spacing" textLength="109.8716" x="360.0984" y="743.8437">Optional Signing</text><polygon fill="#F1F1F1" points="573.8235,766.9457,725.3694,766.9457,737.3694,778.9457,725.3694,790.9457,573.8235,790.9457,561.8235,778.9457,573.8235,766.9457" style="stroke:#181818;stroke-width:0.5;"/><text fill="#000000" font-family="sans-serif" font-size="11" lengthAdjust="spacing" textLength="151.546" x="573.8235" y="783.2137">Sign Installers and Packages?</text><text fill="#000000" font-family="sans-serif" font-size="11" lengthAdjust="spacing" textLength="17.6989" x="544.1246" y="775.7227">Yes</text><text fill="#000000" font-family="sans-serif" font-size="11" lengthAdjust="spacing" textLength="15.0149" x="737.3694" y="775.7227">No</text><path d="M577.2155,800.9457 L577.2155,837.3577 L557.2155,841.3577 L577.2155,845.3577 L577.2155,881.7698 A0,0 0 0 0 577.2155,881.7698 L767.5537,881.7698 A0,0 0 0 0 767.5537,881.7698 L767.5537,810.9457 L757.5537,800.9457 L577.2155,800.9457 A0,0 0 0 0 577.2155,800.9457 " fill="#FEFFDD" style="stroke:#181818;stroke-width:0.5;"/><path d="M757.5537,800.9457 L757.5537,810.9457 L767.5537,810.9457 L757.5537,800.9457 " fill="#FEFFDD" style="stroke:#181818;stroke-width:0.5;"/><text fill="#000000" font-family="sans-serif" font-size="13" lengthAdjust="spacing" textLength="169.3382" x="583.2155" y="819.8427">- Sign Windows executables</text><text fill="#000000" font-family="sans-serif" font-size="13" lengthAdjust="spacing" textLength="85.5271" x="583.2155" y="837.5487">- Sign JAR files</text><text fill="#000000" font-family="sans-serif" font-size="13" lengthAdjust="spacing" textLength="123.3311" x="583.2155" y="855.2548">- Sign DEB packages</text><text fill="#000000" font-family="sans-serif" font-size="13" lengthAdjust="spacing" textLength="125.9051" x="583.2155" y="872.9608">- Sign RPM packages</text><rect fill="#F1F1F1" height="36.3441" rx="12.5" ry="12.5" style="stroke:#181818;stroke-width:0.5;" width="180.1171" x="377.0984" y="823.1857"/><text fill="#000000" font-family="sans-serif" font-size="12" lengthAdjust="spacing" textLength="160.1171" x="387.0984" y="846.0138">Sign Installers and Packages</text><path d="M541.4073,891.7698 L541.4073,963.5938 L521.4073,967.5938 L541.4073,971.5938 L541.4073,1043.4179 A0,0 0 0 0 541.4073,1043.4179 L761.7885,1043.4179 A0,0 0 0 0 761.7885,1043.4179 L761.7885,901.7698 L751.7885,891.7698 L541.4073,891.7698 A0,0 0 0 0 541.4073,891.7698 " fill="#FEFFDD" style="stroke:#181818;stroke-width:0.5;"/><path d="M751.7885,891.7698 L751.7885,901.7698 L761.7885,901.7698 L751.7885,891.7698 " fill="#FEFFDD" style="stroke:#181818;stroke-width:0.5;"/><text fill="#000000" font-family="sans-serif" font-size="13" lengthAdjust="spacing" textLength="98.3451" x="547.4073" y="910.6668">Signed artifacts:</text><text fill="#000000" font-family="sans-serif" font-size="13" lengthAdjust="spacing" textLength="105.1701" x="547.4073" y="928.3728">- turbowin-4.5.jar</text><text fill="#000000" font-family="sans-serif" font-size="13" lengthAdjust="spacing" textLength="199.3812" x="547.4073" y="946.0788">- turbowinplus_4.5-1_amd64.deb</text><text fill="#000000" font-family="sans-serif" font-size="13" lengthAdjust="spacing" textLength="197.7822" x="547.4073" y="963.7848">- turbowinplus-4.5-1.x86_64.rpm</text><text fill="#000000" font-family="sans-serif" font-size="13" lengthAdjust="spacing" textLength="182.7282" x="547.4073" y="981.4909">- turbowinplus_4.5-1_i386.deb</text><text fill="#000000" font-family="sans-serif" font-size="13" lengthAdjust="spacing" textLength="181.0512" x="547.4073" y="999.1969">- turbowinplus-4.5-1.i386.rpm</text><text fill="#000000" font-family="sans-serif" font-size="13" lengthAdjust="spacing" textLength="181.4542" x="547.4073" y="1016.9029">- TurboWinPlus-4.5_64-bit.exe</text><text fill="#000000" font-family="sans-serif" font-size="13" lengthAdjust="spacing" textLength="181.4542" x="547.4073" y="1034.6089">- TurboWinPlus-4.5_32-bit.exe</text><rect fill="#F1F1F1" height="36.3441" rx="12.5" ry="12.5" style="stroke:#181818;stroke-width:0.5;" width="108.5006" x="412.9066" y="949.4218"/><text fill="#000000" font-family="sans-serif" font-size="12" lengthAdjust="spacing" textLength="88.5006" x="422.9066" y="972.2499">Signed Artifacts</text><rect fill="#F1F1F1" height="36.3441" rx="12.5" ry="12.5" style="stroke:#181818;stroke-width:0.5;" width="88.9645" x="787.5537" y="800.9457"/><text fill="#000000" font-family="sans-serif" font-size="12" lengthAdjust="spacing" textLength="68.9645" x="797.5537" y="823.7738">Skip Signing</text><polygon fill="#F1F1F1" points="649.5964,1049.4179,661.5964,1061.4179,649.5964,1073.4179,637.5964,1061.4179,649.5964,1049.4179" style="stroke:#181818;stroke-width:0.5;"/><rect fill="#F1F1F1" height="36.3441" rx="12.5" ry="12.5" style="stroke:#181818;stroke-width:0.5;" width="133.8808" x="582.656" y="1105.4179"/><text fill="#000000" font-family="sans-serif" font-size="12" lengthAdjust="spacing" textLength="113.8808" x="592.656" y="1128.246">Release of packages</text><line style="stroke:#181818;stroke-width:1.0;" x1="418.8837" x2="418.8837" y1="142.4799" y2="174.7199"/><polygon fill="#181818" points="414.8837,164.7199,418.8837,174.7199,422.8837,164.7199,418.8837,168.7199" style="stroke:#181818;stroke-width:1.0;"/><line style="stroke:#181818;stroke-width:1.0;" x1="654.702" x2="654.702" y1="142.4799" y2="174.7199"/><polygon fill="#181818" points="650.702,164.7199,654.702,174.7199,658.702,164.7199,654.702,168.7199" style="stroke:#181818;stroke-width:1.0;"/><line style="stroke:#181818;stroke-width:1.0;" x1="418.8837" x2="418.8837" y1="211.064" y2="265.4429"/><polygon fill="#181818" points="414.8837,255.4429,418.8837,265.4429,422.8837,255.4429,418.8837,259.4429" style="stroke:#181818;stroke-width:1.0;"/><text fill="#000000" font-family="sans-serif" font-size="11" lengthAdjust="spacing" textLength="82.5874" x="422.8837" y="243.9429">turbowin-4.5.jar</text><line style="stroke:#181818;stroke-width:1.0;" x1="654.702" x2="654.702" y1="211.064" y2="265.4429"/><polygon fill="#181818" points="650.702,255.4429,654.702,265.4429,658.702,255.4429,654.702,259.4429" style="stroke:#181818;stroke-width:1.0;"/><text fill="#000000" font-family="sans-serif" font-size="11" lengthAdjust="spacing" textLength="113.7612" x="658.702" y="243.9429">screen_capture.webm</text><line style="stroke:#181818;stroke-width:1.0;" x1="649.5964" x2="649.5964" y1="87.412" y2="136.4799"/><polygon fill="#181818" points="645.5964,126.4799,649.5964,136.4799,653.5964,126.4799,649.5964,130.4799" style="stroke:#181818;stroke-width:1.0;"/><line style="stroke:#181818;stroke-width:1.0;" x1="105.1244" x2="105.1244" y1="338.5109" y2="370.7508"/><polygon fill="#181818" points="101.1244,360.7508,105.1244,370.7508,109.1244,360.7508,105.1244,364.7508" style="stroke:#181818;stroke-width:1.0;"/><line style="stroke:#181818;stroke-width:1.0;" x1="510.7184" x2="510.7184" y1="338.5109" y2="370.7508"/><polygon fill="#181818" points="506.7184,360.7508,510.7184,370.7508,514.7184,360.7508,510.7184,364.7508" style="stroke:#181818;stroke-width:1.0;"/><line style="stroke:#181818;stroke-width:1.0;" x1="905.3143" x2="905.3143" y1="338.5109" y2="370.7508"/><polygon fill="#181818" points="901.3143,360.7508,905.3143,370.7508,909.3143,360.7508,905.3143,364.7508" style="stroke:#181818;stroke-width:1.0;"/><line style="stroke:#181818;stroke-width:1.0;" x1="105.1244" x2="105.1244" y1="407.0949" y2="476.4557"/><polygon fill="#181818" points="101.1244,466.4557,105.1244,476.4557,109.1244,466.4557,105.1244,470.4557" style="stroke:#181818;stroke-width:1.0;"/><text fill="#000000" font-family="sans-serif" font-size="11" lengthAdjust="spacing" textLength="162.3038" x="109.1244" y="439.9738">turbowinplus_4.5-1_amd64.deb</text><text fill="#000000" font-family="sans-serif" font-size="11" lengthAdjust="spacing" textLength="160.9508" x="109.1244" y="454.9557">turbowinplus-4.5-1.x86_64.rpm</text><line style="stroke:#181818;stroke-width:1.0;" x1="510.7184" x2="510.7184" y1="407.0949" y2="476.4557"/><polygon fill="#181818" points="506.7184,466.4557,510.7184,476.4557,514.7184,466.4557,510.7184,470.4557" style="stroke:#181818;stroke-width:1.0;"/><text fill="#000000" font-family="sans-serif" font-size="11" lengthAdjust="spacing" textLength="148.2129" x="514.7184" y="439.9738">turbowinplus_4.5-1_i386.deb</text><text fill="#000000" font-family="sans-serif" font-size="11" lengthAdjust="spacing" textLength="146.7939" x="514.7184" y="454.9557">turbowinplus-4.5-1.i386.rpm</text><line style="stroke:#181818;stroke-width:1.0;" x1="905.3143" x2="905.3143" y1="407.0949" y2="476.4557"/><polygon fill="#181818" points="901.3143,466.4557,905.3143,476.4557,909.3143,466.4557,905.3143,470.4557" style="stroke:#181818;stroke-width:1.0;"/><text fill="#000000" font-family="sans-serif" font-size="11" lengthAdjust="spacing" textLength="147.1349" x="909.3143" y="439.9738">TurboWinPlus-4.5_64-bit.exe</text><text fill="#000000" font-family="sans-serif" font-size="11" lengthAdjust="spacing" textLength="147.1349" x="909.3143" y="454.9557">TurboWinPlus-4.5_32-bit.exe</text><line style="stroke:#181818;stroke-width:1.0;" x1="649.5964" x2="649.5964" y1="271.4429" y2="332.5109"/><polygon fill="#181818" points="645.5964,322.5109,649.5964,332.5109,653.5964,322.5109,649.5964,326.5109" style="stroke:#181818;stroke-width:1.0;"/><line style="stroke:#181818;stroke-width:1.0;" x1="649.5964" x2="649.5964" y1="482.4557" y2="603.0287"/><polygon fill="#181818" points="645.5964,593.0287,649.5964,603.0287,653.5964,593.0287,649.5964,597.0287" style="stroke:#181818;stroke-width:1.0;"/><line style="stroke:#181818;stroke-width:1.0;" x1="467.157" x2="467.157" y1="859.5298" y2="949.4218"/><polygon fill="#181818" points="463.157,939.4218,467.157,949.4218,471.157,939.4218,467.157,943.4218" style="stroke:#181818;stroke-width:1.0;"/><line style="stroke:#181818;stroke-width:1.0;" x1="561.8235" x2="467.157" y1="778.9457" y2="778.9457"/><line style="stroke:#181818;stroke-width:1.0;" x1="467.157" x2="467.157" y1="778.9457" y2="823.1857"/><polygon fill="#181818" points="463.157,813.1857,467.157,823.1857,471.157,813.1857,467.157,817.1857" style="stroke:#181818;stroke-width:1.0;"/><line style="stroke:#181818;stroke-width:1.0;" x1="737.3694" x2="832.0359" y1="778.9457" y2="778.9457"/><line style="stroke:#181818;stroke-width:1.0;" x1="832.0359" x2="832.0359" y1="778.9457" y2="800.9457"/><polygon fill="#181818" points="828.0359,790.9457,832.0359,800.9457,836.0359,790.9457,832.0359,794.9457" style="stroke:#181818;stroke-width:1.0;"/><line style="stroke:#181818;stroke-width:1.0;" x1="467.157" x2="467.157" y1="985.7659" y2="1061.4179"/><line style="stroke:#181818;stroke-width:1.0;" x1="467.157" x2="637.5964" y1="1061.4179" y2="1061.4179"/><polygon fill="#181818" points="627.5964,1057.4179,637.5964,1061.4179,627.5964,1065.4179,631.5964,1061.4179" style="stroke:#181818;stroke-width:1.0;"/><line style="stroke:#181818;stroke-width:1.0;" x1="832.0359" x2="832.0359" y1="837.2898" y2="1061.4179"/><line style="stroke:#181818;stroke-width:1.0;" x1="832.0359" x2="661.5964" y1="1061.4179" y2="1061.4179"/><polygon fill="#181818" points="671.5964,1057.4179,661.5964,1061.4179,671.5964,1065.4179,667.5964,1061.4179" style="stroke:#181818;stroke-width:1.0;"/><line style="stroke:#181818;stroke-width:1.0;" x1="649.5964" x2="649.5964" y1="639.3728" y2="766.9457"/><polygon fill="#181818" points="645.5964,756.9457,649.5964,766.9457,653.5964,756.9457,649.5964,760.9457" style="stroke:#181818;stroke-width:1.0;"/><line style="stroke:#181818;stroke-width:1.0;" x1="649.5964" x2="649.5964" y1="1073.4179" y2="1105.4179"/><polygon fill="#181818" points="645.5964,1095.4179,649.5964,1105.4179,653.5964,1095.4179,649.5964,1099.4179" style="stroke:#181818;stroke-width:1.0;"/><!--SRC=[lLNVRzem47xFNt7g4tq8scY7AgWw5PYgTjsAwAIkJyX93l0mTcGxXMhg_xvp0k57qW1IjJo1xxFFttVVdSsKovXfDWEDeMLoB13-Ua1VXuNJiLQ9ZBfAA7rvsKcuYE3HiZ5UNS4z7qziHoHO3kxJ0W6tuJSQKPRZhxNb8nPQiy8-en1gNWv-Y2rNaWbuv6F9vNXzFdlrtZpFSaiqRhYzPm5qRw7FOnHS8eoKXb-93jGJbtsH6CzhTLM444w8EKASc0b6O1M94Il3hTAlRSyZVUX4oWWd6ngSmAuacMwKOvh-S5yhS8Xs_bygYw3TNVCbzpr8w670cOGQcqNDyzFMLjY7Msai4m8UOfHtlUyxqK4YWRX7H3hDbuTHHcdAVC6_0klupxdqp-jVwd-ORkUt1ZPcNAxlRj7OZxkwEurg1H4IXmXboD7iG1_HGXB32zSseUf6tCI2AbeawyuoCETs0YPqfeAGnKGCAvbdqE4IMfzZCCleEN1QjhUjOczvs9LxrzHb1Oypp93ybYo6gIGVfs5s-1uLkqg-eBR0GoLtOoi6hX7ktGqXJNYGOM9gc26Pnl-SqQf76EIuJP2VWkgBY-QGK3gUlM-nRRNusKNp6B4S_dzgvV8TAvNRiq-f57EGJhGlKdDpY4XF6PIQIXD5Q7ngDA3MFFS3RWkQzTHS2iKYeDa2jRE60m4ZWajy-lk9_wvGQ9MEgfwY5tjSjJc6dGp3B5KT5sjO0PFTp64g6pT_J5pJRhuiMSFIp1U2NZl8Gzbf9LhUe4JDB3qAR8LTQ-SNPkb6g6JOb6oix2c_kgkgZolupgzotWRgaCBuLQNnjag-NPdTbziLgEGrp-h4Hr1pQwkMHcrIQorjPxwUWftGxAyzepbTzqhLbhsDuwUtoDrCTCB4ia0Ktoe7kxiUm8Y_4-nzwoo7K7byqFzHZ1TQ9QL3_jlnQWM5vOOIm-unxH7MFCQUXrlqS9iURjN3x5gG7eL1gFrKcxwQydZbqNpyy95pU6k00XdjKAEyfEr_]--></g></svg>