<?xml version="1.0" encoding="us-ascii" standalone="no"?><svg xmlns="http://www.w3.org/2000/svg" xmlns:xlink="http://www.w3.org/1999/xlink" contentStyleType="text/css" height="1166px" preserveAspectRatio="none" style="width:1274px;height:1166px;background:#FFFFFF;" version="1.1" viewBox="0 0 1274 1166" width="1274px" zoomAndPan="magnify"><defs/><g><text fill="#000000" font-family="sans-serif" font-size="14" font-weight="bold" lengthAdjust="spacing" textLength="247" x="512" y="34.9659">GitLab CI Pipeline for TurboWinPlus</text><rect fill="#F1F1F1" height="36.3441" rx="12.5" ry="12.5" style="stroke:#181818;stroke-width:0.5;" width="211" x="531.5" y="51.0679"/><text fill="#000000" font-family="sans-serif" font-size="12" lengthAdjust="spacing" textLength="191" x="541.5" y="73.896">Code change pushed to repository</text><rect fill="none" height="199.3104" style="stroke:#000000;stroke-width:1.5;" width="620" x="327" y="97.412"/><path d="M414,97.412 L414,109.4799 L404,119.4799 L327,119.4799 " fill="none" style="stroke:#000000;stroke-width:1.5;"/><text fill="#000000" font-family="sans-serif" font-size="14" lengthAdjust="spacing" textLength="77" x="330" y="113.378">Build Stage</text><rect fill="#555555" height="6" rx="2.5" ry="2.5" style="stroke:#555555;stroke-width:1.0;" width="600" x="337" y="136.4799"/><path d="M418,170.186 L418,197.745 L398,201.745 L418,205.745 L418,233.304 A0,0 0 0 0 418,233.304 L626,233.304 A0,0 0 0 0 626,233.304 L626,180.186 L616,170.186 L418,170.186 A0,0 0 0 0 418,170.186 " fill="#FEFFDD" style="stroke:#181818;stroke-width:0.5;"/><path d="M616,170.186 L616,180.186 L626,180.186 L616,170.186 " fill="#FEFFDD" style="stroke:#181818;stroke-width:0.5;"/><text fill="#000000" font-family="sans-serif" font-size="13" lengthAdjust="spacing" textLength="187" x="424" y="189.083">On Debian Bookworm (amd64):</text><text fill="#000000" font-family="sans-serif" font-size="13" lengthAdjust="spacing" textLength="100" x="424" y="206.789">- Install OpenJDK</text><text fill="#000000" font-family="sans-serif" font-size="13" lengthAdjust="spacing" textLength="106" x="424" y="224.495">- Run Gradle build</text><rect fill="#F1F1F1" height="36.3441" rx="12.5" ry="12.5" style="stroke:#181818;stroke-width:0.5;" width="47" x="351" y="183.5729"/><text fill="#000000" font-family="sans-serif" font-size="12" lengthAdjust="spacing" textLength="27" x="361" y="206.401">build</text><path d="M715,152.4799 L715,197.745 L695,201.745 L715,205.745 L715,251.01 A0,0 0 0 0 715,251.01 L923,251.01 A0,0 0 0 0 923,251.01 L923,162.4799 L913,152.4799 L715,152.4799 A0,0 0 0 0 715,152.4799 " fill="#FEFFDD" style="stroke:#181818;stroke-width:0.5;"/><path d="M913,152.4799 L913,162.4799 L923,162.4799 L913,152.4799 " fill="#FEFFDD" style="stroke:#181818;stroke-width:0.5;"/><text fill="#000000" font-family="sans-serif" font-size="13" lengthAdjust="spacing" textLength="187" x="721" y="171.377">On Debian Bookworm (amd64):</text><text fill="#000000" font-family="sans-serif" font-size="13" lengthAdjust="spacing" textLength="174" x="721" y="189.083">- Install testing dependencies</text><text fill="#000000" font-family="sans-serif" font-size="13" lengthAdjust="spacing" textLength="131" x="721" y="206.789">- Set up virtual display</text><text fill="#000000" font-family="sans-serif" font-size="13" lengthAdjust="spacing" textLength="183" x="721" y="224.495">- Run tests with screen capture</text><text fill="#000000" font-family="sans-serif" font-size="13" lengthAdjust="spacing" textLength="125" x="721" y="242.201">- Trim screen capture</text><rect fill="#F1F1F1" height="36.3441" rx="12.5" ry="12.5" style="stroke:#181818;stroke-width:0.5;" width="41" x="654" y="183.5729"/><text fill="#000000" font-family="sans-serif" font-size="12" lengthAdjust="spacing" textLength="21" x="664" y="206.401">test</text><rect fill="#555555" height="6" rx="2.5" ry="2.5" style="stroke:#555555;stroke-width:1.0;" width="600" x="337" y="278.7225"/><rect fill="none" height="201.0128" style="stroke:#000000;stroke-width:1.5;" width="1252" x="11" y="306.7225"/><path d="M118,306.7225 L118,318.7904 L108,328.7904 L11,328.7904 " fill="none" style="stroke:#000000;stroke-width:1.5;"/><text fill="#000000" font-family="sans-serif" font-size="14" lengthAdjust="spacing" textLength="97" x="14" y="322.6884">Package Stage</text><rect fill="#555555" height="6" rx="2.5" ry="2.5" style="stroke:#555555;stroke-width:1.0;" width="1232" x="21" y="345.7904"/><path d="M195,361.7904 L195,398.2024 L175,402.2024 L195,406.2024 L195,442.6144 A0,0 0 0 0 195,442.6144 L410,442.6144 A0,0 0 0 0 410,442.6144 L410,371.7904 L400,361.7904 L195,361.7904 A0,0 0 0 0 195,361.7904 " fill="#FEFFDD" style="stroke:#181818;stroke-width:0.5;"/><path d="M400,361.7904 L400,371.7904 L410,371.7904 L400,361.7904 " fill="#FEFFDD" style="stroke:#181818;stroke-width:0.5;"/><text fill="#000000" font-family="sans-serif" font-size="13" lengthAdjust="spacing" textLength="187" x="201" y="380.6874">On Debian Bookworm (amd64):</text><text fill="#000000" font-family="sans-serif" font-size="13" lengthAdjust="spacing" textLength="194" x="201" y="398.3934">- Install packaging dependencies</text><text fill="#000000" font-family="sans-serif" font-size="13" lengthAdjust="spacing" textLength="89" x="201" y="416.0994">- Convert icons</text><text fill="#000000" font-family="sans-serif" font-size="13" lengthAdjust="spacing" textLength="157" x="201" y="433.8054">- Package for Linux amd64</text><rect fill="#F1F1F1" height="36.3441" rx="12.5" ry="12.5" style="stroke:#181818;stroke-width:0.5;" width="142" x="33" y="384.0303"/><text fill="#000000" font-family="sans-serif" font-size="12" lengthAdjust="spacing" textLength="122" x="43" y="406.8584">package_linux_amd64</text><path d="M585,361.7904 L585,398.2024 L565,402.2024 L585,406.2024 L585,442.6144 A0,0 0 0 0 585,442.6144 L800,442.6144 A0,0 0 0 0 800,442.6144 L800,371.7904 L790,361.7904 L585,361.7904 A0,0 0 0 0 585,361.7904 " fill="#FEFFDD" style="stroke:#181818;stroke-width:0.5;"/><path d="M790,361.7904 L790,371.7904 L800,371.7904 L790,361.7904 " fill="#FEFFDD" style="stroke:#181818;stroke-width:0.5;"/><text fill="#000000" font-family="sans-serif" font-size="13" lengthAdjust="spacing" textLength="170" x="591" y="380.6874">On Debian Bookworm (i386):</text><text fill="#000000" font-family="sans-serif" font-size="13" lengthAdjust="spacing" textLength="194" x="591" y="398.3934">- Install packaging dependencies</text><text fill="#000000" font-family="sans-serif" font-size="13" lengthAdjust="spacing" textLength="89" x="591" y="416.0994">- Convert icons</text><text fill="#000000" font-family="sans-serif" font-size="13" lengthAdjust="spacing" textLength="140" x="591" y="433.8054">- Package for Linux i386</text><rect fill="#F1F1F1" height="36.3441" rx="12.5" ry="12.5" style="stroke:#181818;stroke-width:0.5;" width="127" x="438" y="384.0303"/><text fill="#000000" font-family="sans-serif" font-size="12" lengthAdjust="spacing" textLength="107" x="448" y="406.8584">package_linux_i386</text><path d="M968,370.6434 L968,398.2024 L948,402.2024 L968,406.2024 L968,433.7614 A0,0 0 0 0 968,433.7614 L1241,433.7614 A0,0 0 0 0 1241,433.7614 L1241,380.6434 L1231,370.6434 L968,370.6434 A0,0 0 0 0 968,370.6434 " fill="#FEFFDD" style="stroke:#181818;stroke-width:0.5;"/><path d="M1231,370.6434 L1231,380.6434 L1241,380.6434 L1231,370.6434 " fill="#FEFFDD" style="stroke:#181818;stroke-width:0.5;"/><text fill="#000000" font-family="sans-serif" font-size="13" lengthAdjust="spacing" textLength="196" x="974" y="389.5404">On Windows Server 2022 (64-bit):</text><text fill="#000000" font-family="sans-serif" font-size="13" lengthAdjust="spacing" textLength="252" x="974" y="407.2464">- Download JDK (32-bit and 64-bit) and WiX</text><text fill="#000000" font-family="sans-serif" font-size="13" lengthAdjust="spacing" textLength="209" x="974" y="424.9524">- Package for Windows x86 and x64</text><rect fill="#F1F1F1" height="36.3441" rx="12.5" ry="12.5" style="stroke:#181818;stroke-width:0.5;" width="120" x="828" y="384.0303"/><text fill="#000000" font-family="sans-serif" font-size="12" lengthAdjust="spacing" textLength="100" x="838" y="406.8584">package_windows</text><rect fill="#555555" height="6" rx="2.5" ry="2.5" style="stroke:#555555;stroke-width:1.0;" width="1232" x="21" y="489.7352"/><rect fill="none" height="213.4221" style="stroke:#000000;stroke-width:1.5;" width="363" x="573" y="517.7352"/><path d="M639,517.7352 L639,529.8032 L629,539.8032 L573,539.8032 " fill="none" style="stroke:#000000;stroke-width:1.5;"/><text fill="#000000" font-family="sans-serif" font-size="14" lengthAdjust="spacing" textLength="56" x="576" y="533.7012">Artifacts</text><path d="M711,549.8032 L711,630.4802 L691,634.4802 L711,638.4802 L711,719.1573 A0,0 0 0 0 711,719.1573 L926,719.1573 A0,0 0 0 0 926,719.1573 L926,559.8032 L916,549.8032 L711,549.8032 A0,0 0 0 0 711,549.8032 " fill="#FEFFDD" style="stroke:#181818;stroke-width:0.5;"/><path d="M916,549.8032 L916,559.8032 L926,559.8032 L916,549.8032 " fill="#FEFFDD" style="stroke:#181818;stroke-width:0.5;"/><text fill="#000000" font-family="sans-serif" font-size="13" lengthAdjust="spacing" textLength="117" x="717" y="568.7002">Generated artifacts:</text><text fill="#000000" font-family="sans-serif" font-size="13" lengthAdjust="spacing" textLength="101" x="717" y="586.4062">- turbowin-4.5.jar</text><text fill="#000000" font-family="sans-serif" font-size="13" lengthAdjust="spacing" textLength="138" x="717" y="604.1122">- screen_capture.webm</text><text fill="#000000" font-family="sans-serif" font-size="13" lengthAdjust="spacing" textLength="194" x="717" y="621.8182">- turbowinplus_4.5-1_amd64.deb</text><text fill="#000000" font-family="sans-serif" font-size="13" lengthAdjust="spacing" textLength="191" x="717" y="639.5242">- turbowinplus-4.5-1.x86_64.rpm</text><text fill="#000000" font-family="sans-serif" font-size="13" lengthAdjust="spacing" textLength="177" x="717" y="657.2303">- turbowinplus_4.5-1_i386.deb</text><text fill="#000000" font-family="sans-serif" font-size="13" lengthAdjust="spacing" textLength="174" x="717" y="674.9363">- turbowinplus-4.5-1.i386.rpm</text><text fill="#000000" font-family="sans-serif" font-size="13" lengthAdjust="spacing" textLength="176" x="717" y="692.6423">- TurboWinPlus-4.5_64-bit.exe</text><text fill="#000000" font-family="sans-serif" font-size="13" lengthAdjust="spacing" textLength="176" x="717" y="710.3483">- TurboWinPlus-4.5_32-bit.exe</text><rect fill="#F1F1F1" height="36.3441" rx="12.5" ry="12.5" style="stroke:#181818;stroke-width:0.5;" width="108" x="583" y="616.3082"/><text fill="#000000" font-family="sans-serif" font-size="12" lengthAdjust="spacing" textLength="88" x="593" y="639.1363">Collect Artifacts</text><rect fill="none" height="357.5401" style="stroke:#000000;stroke-width:1.5;" width="532" x="348" y="741.1573"/><path d="M472,741.1573 L472,753.2252 L462,763.2252 L348,763.2252 " fill="none" style="stroke:#000000;stroke-width:1.5;"/><text fill="#000000" font-family="sans-serif" font-size="14" lengthAdjust="spacing" textLength="114" x="351" y="757.1232">Optional Signing</text><polygon fill="#F1F1F1" points="560.5,780.2252,713.5,780.2252,725.5,792.2252,713.5,804.2252,560.5,804.2252,548.5,792.2252,560.5,780.2252" style="stroke:#181818;stroke-width:0.5;"/><text fill="#000000" font-family="sans-serif" font-size="11" lengthAdjust="spacing" textLength="153" x="560.5" y="796.4932">Sign Installers and Packages?</text><text fill="#000000" font-family="sans-serif" font-size="11" lengthAdjust="spacing" textLength="17" x="531.5" y="789.0023">Yes</text><text fill="#000000" font-family="sans-serif" font-size="11" lengthAdjust="spacing" textLength="15" x="725.5" y="789.0023">No</text><path d="M567,814.2252 L567,850.6373 L547,854.6373 L567,858.6373 L567,895.0493 A0,0 0 0 0 567,895.0493 L753,895.0493 A0,0 0 0 0 753,895.0493 L753,824.2252 L743,814.2252 L567,814.2252 A0,0 0 0 0 567,814.2252 " fill="#FEFFDD" style="stroke:#181818;stroke-width:0.5;"/><path d="M743,814.2252 L743,824.2252 L753,824.2252 L743,814.2252 " fill="#FEFFDD" style="stroke:#181818;stroke-width:0.5;"/><text fill="#000000" font-family="sans-serif" font-size="13" lengthAdjust="spacing" textLength="165" x="573" y="833.1222">- Sign Windows executables</text><text fill="#000000" font-family="sans-serif" font-size="13" lengthAdjust="spacing" textLength="82" x="573" y="850.8283">- Sign JAR files</text><text fill="#000000" font-family="sans-serif" font-size="13" lengthAdjust="spacing" textLength="119" x="573" y="868.5343">- Sign DEB packages</text><text fill="#000000" font-family="sans-serif" font-size="13" lengthAdjust="spacing" textLength="123" x="573" y="886.2403">- Sign RPM packages</text><rect fill="#F1F1F1" height="36.3441" rx="12.5" ry="12.5" style="stroke:#181818;stroke-width:0.5;" width="179" x="368" y="836.4652"/><text fill="#000000" font-family="sans-serif" font-size="12" lengthAdjust="spacing" textLength="159" x="378" y="859.2933">Sign Installers and Packages</text><path d="M531.5,905.0493 L531.5,976.8734 L511.5,980.8734 L531.5,984.8734 L531.5,1056.6974 A0,0 0 0 0 531.5,1056.6974 L746.5,1056.6974 A0,0 0 0 0 746.5,1056.6974 L746.5,915.0493 L736.5,905.0493 L531.5,905.0493 A0,0 0 0 0 531.5,905.0493 " fill="#FEFFDD" style="stroke:#181818;stroke-width:0.5;"/><path d="M736.5,905.0493 L736.5,915.0493 L746.5,915.0493 L736.5,905.0493 " fill="#FEFFDD" style="stroke:#181818;stroke-width:0.5;"/><text fill="#000000" font-family="sans-serif" font-size="13" lengthAdjust="spacing" textLength="95" x="537.5" y="923.9463">Signed artifacts:</text><text fill="#000000" font-family="sans-serif" font-size="13" lengthAdjust="spacing" textLength="101" x="537.5" y="941.6523">- turbowin-4.5.jar</text><text fill="#000000" font-family="sans-serif" font-size="13" lengthAdjust="spacing" textLength="194" x="537.5" y="959.3583">- turbowinplus_4.5-1_amd64.deb</text><text fill="#000000" font-family="sans-serif" font-size="13" lengthAdjust="spacing" textLength="191" x="537.5" y="977.0644">- turbowinplus-4.5-1.x86_64.rpm</text><text fill="#000000" font-family="sans-serif" font-size="13" lengthAdjust="spacing" textLength="177" x="537.5" y="994.7704">- turbowinplus_4.5-1_i386.deb</text><text fill="#000000" font-family="sans-serif" font-size="13" lengthAdjust="spacing" textLength="174" x="537.5" y="1012.4764">- turbowinplus-4.5-1.i386.rpm</text><text fill="#000000" font-family="sans-serif" font-size="13" lengthAdjust="spacing" textLength="176" x="537.5" y="1030.1824">- TurboWinPlus-4.5_64-bit.exe</text><text fill="#000000" font-family="sans-serif" font-size="13" lengthAdjust="spacing" textLength="176" x="537.5" y="1047.8884">- TurboWinPlus-4.5_32-bit.exe</text><rect fill="#F1F1F1" height="36.3441" rx="12.5" ry="12.5" style="stroke:#181818;stroke-width:0.5;" width="108" x="403.5" y="962.7013"/><text fill="#000000" font-family="sans-serif" font-size="12" lengthAdjust="spacing" textLength="88" x="413.5" y="985.5294">Signed Artifacts</text><rect fill="#F1F1F1" height="36.3441" rx="12.5" ry="12.5" style="stroke:#181818;stroke-width:0.5;" width="87" x="773" y="814.2252"/><text fill="#000000" font-family="sans-serif" font-size="12" lengthAdjust="spacing" textLength="67" x="783" y="837.0533">Skip Signing</text><polygon fill="#F1F1F1" points="637,1062.6974,649,1074.6974,637,1086.6974,625,1074.6974,637,1062.6974" style="stroke:#181818;stroke-width:0.5;"/><rect fill="#F1F1F1" height="36.3441" rx="12.5" ry="12.5" style="stroke:#181818;stroke-width:0.5;" width="134" x="570" y="1118.6974"/><text fill="#000000" font-family="sans-serif" font-size="12" lengthAdjust="spacing" textLength="114" x="580" y="1141.5255">Release of packages</text><line style="stroke:#181818;stroke-width:1.0;" x1="374.5" x2="374.5" y1="142.4799" y2="183.5729"/><polygon fill="#181818" points="370.5,173.5729,374.5,183.5729,378.5,173.5729,374.5,177.5729" style="stroke:#181818;stroke-width:1.0;"/><line style="stroke:#181818;stroke-width:1.0;" x1="674.5" x2="674.5" y1="142.4799" y2="183.5729"/><polygon fill="#181818" points="670.5,173.5729,674.5,183.5729,678.5,173.5729,674.5,177.5729" style="stroke:#181818;stroke-width:1.0;"/><line style="stroke:#181818;stroke-width:1.0;" x1="374.5" x2="374.5" y1="219.917" y2="278.7225"/><polygon fill="#181818" points="370.5,268.7225,374.5,278.7225,378.5,268.7225,374.5,272.7225" style="stroke:#181818;stroke-width:1.0;"/><text fill="#000000" font-family="sans-serif" font-size="11" lengthAdjust="spacing" textLength="85" x="378.5" y="257.2225">turbowin-4.5.jar</text><line style="stroke:#181818;stroke-width:1.0;" x1="674.5" x2="674.5" y1="219.917" y2="278.7225"/><polygon fill="#181818" points="670.5,268.7225,674.5,278.7225,678.5,268.7225,674.5,272.7225" style="stroke:#181818;stroke-width:1.0;"/><text fill="#000000" font-family="sans-serif" font-size="11" lengthAdjust="spacing" textLength="114" x="678.5" y="257.2225">screen_capture.webm</text><line style="stroke:#181818;stroke-width:1.0;" x1="637" x2="637" y1="87.412" y2="136.4799"/><polygon fill="#181818" points="633,126.4799,637,136.4799,641,126.4799,637,130.4799" style="stroke:#181818;stroke-width:1.0;"/><line style="stroke:#181818;stroke-width:1.0;" x1="104" x2="104" y1="351.7904" y2="384.0303"/><polygon fill="#181818" points="100,374.0303,104,384.0303,108,374.0303,104,378.0303" style="stroke:#181818;stroke-width:1.0;"/><line style="stroke:#181818;stroke-width:1.0;" x1="501.5" x2="501.5" y1="351.7904" y2="384.0303"/><polygon fill="#181818" points="497.5,374.0303,501.5,384.0303,505.5,374.0303,501.5,378.0303" style="stroke:#181818;stroke-width:1.0;"/><line style="stroke:#181818;stroke-width:1.0;" x1="888" x2="888" y1="351.7904" y2="384.0303"/><polygon fill="#181818" points="884,374.0303,888,384.0303,892,374.0303,888,378.0303" style="stroke:#181818;stroke-width:1.0;"/><line style="stroke:#181818;stroke-width:1.0;" x1="104" x2="104" y1="420.3745" y2="489.7352"/><polygon fill="#181818" points="100,479.7352,104,489.7352,108,479.7352,104,483.7352" style="stroke:#181818;stroke-width:1.0;"/><text fill="#000000" font-family="sans-serif" font-size="11" lengthAdjust="spacing" textLength="164" x="108" y="453.2534">turbowinplus_4.5-1_amd64.deb</text><text fill="#000000" font-family="sans-serif" font-size="11" lengthAdjust="spacing" textLength="163" x="108" y="468.2352">turbowinplus-4.5-1.x86_64.rpm</text><line style="stroke:#181818;stroke-width:1.0;" x1="501.5" x2="501.5" y1="420.3745" y2="489.7352"/><polygon fill="#181818" points="497.5,479.7352,501.5,489.7352,505.5,479.7352,501.5,483.7352" style="stroke:#181818;stroke-width:1.0;"/><text fill="#000000" font-family="sans-serif" font-size="11" lengthAdjust="spacing" textLength="150" x="505.5" y="453.2534">turbowinplus_4.5-1_i386.deb</text><text fill="#000000" font-family="sans-serif" font-size="11" lengthAdjust="spacing" textLength="149" x="505.5" y="468.2352">turbowinplus-4.5-1.i386.rpm</text><line style="stroke:#181818;stroke-width:1.0;" x1="888" x2="888" y1="420.3745" y2="489.7352"/><polygon fill="#181818" points="884,479.7352,888,489.7352,892,479.7352,888,483.7352" style="stroke:#181818;stroke-width:1.0;"/><text fill="#000000" font-family="sans-serif" font-size="11" lengthAdjust="spacing" textLength="149" x="892" y="453.2534">TurboWinPlus-4.5_64-bit.exe</text><text fill="#000000" font-family="sans-serif" font-size="11" lengthAdjust="spacing" textLength="149" x="892" y="468.2352">TurboWinPlus-4.5_32-bit.exe</text><line style="stroke:#181818;stroke-width:1.0;" x1="637" x2="637" y1="284.7225" y2="345.7904"/><polygon fill="#181818" points="633,335.7904,637,345.7904,641,335.7904,637,339.7904" style="stroke:#181818;stroke-width:1.0;"/><line style="stroke:#181818;stroke-width:1.0;" x1="637" x2="637" y1="495.7352" y2="616.3082"/><polygon fill="#181818" points="633,606.3082,637,616.3082,641,606.3082,637,610.3082" style="stroke:#181818;stroke-width:1.0;"/><line style="stroke:#181818;stroke-width:1.0;" x1="457.5" x2="457.5" y1="872.8093" y2="962.7013"/><polygon fill="#181818" points="453.5,952.7013,457.5,962.7013,461.5,952.7013,457.5,956.7013" style="stroke:#181818;stroke-width:1.0;"/><line style="stroke:#181818;stroke-width:1.0;" x1="548.5" x2="457.5" y1="792.2252" y2="792.2252"/><line style="stroke:#181818;stroke-width:1.0;" x1="457.5" x2="457.5" y1="792.2252" y2="836.4652"/><polygon fill="#181818" points="453.5,826.4652,457.5,836.4652,461.5,826.4652,457.5,830.4652" style="stroke:#181818;stroke-width:1.0;"/><line style="stroke:#181818;stroke-width:1.0;" x1="725.5" x2="816.5" y1="792.2252" y2="792.2252"/><line style="stroke:#181818;stroke-width:1.0;" x1="816.5" x2="816.5" y1="792.2252" y2="814.2252"/><polygon fill="#181818" points="812.5,804.2252,816.5,814.2252,820.5,804.2252,816.5,808.2252" style="stroke:#181818;stroke-width:1.0;"/><line style="stroke:#181818;stroke-width:1.0;" x1="457.5" x2="457.5" y1="999.0454" y2="1074.6974"/><line style="stroke:#181818;stroke-width:1.0;" x1="457.5" x2="625" y1="1074.6974" y2="1074.6974"/><polygon fill="#181818" points="615,1070.6974,625,1074.6974,615,1078.6974,619,1074.6974" style="stroke:#181818;stroke-width:1.0;"/><line style="stroke:#181818;stroke-width:1.0;" x1="816.5" x2="816.5" y1="850.5693" y2="1074.6974"/><line style="stroke:#181818;stroke-width:1.0;" x1="816.5" x2="649" y1="1074.6974" y2="1074.6974"/><polygon fill="#181818" points="659,1070.6974,649,1074.6974,659,1078.6974,655,1074.6974" style="stroke:#181818;stroke-width:1.0;"/><line style="stroke:#181818;stroke-width:1.0;" x1="637" x2="637" y1="652.6523" y2="780.2252"/><polygon fill="#181818" points="633,770.2252,637,780.2252,641,770.2252,637,774.2252" style="stroke:#181818;stroke-width:1.0;"/><line style="stroke:#181818;stroke-width:1.0;" x1="637" x2="637" y1="1086.6974" y2="1118.6974"/><polygon fill="#181818" points="633,1108.6974,637,1118.6974,641,1108.6974,637,1112.6974" style="stroke:#181818;stroke-width:1.0;"/><!--SRC=[lLPHRzem47xFhpZrYJu4RRH35LIT2anLksv5j5BN9-Ga1tWOEtASGZNrl- -SG80a3UcaBayXzzddxxllV4HpBaEcsG8q-eR9gK3uum0zFURFfrh5CkWheVJvUI_c8e1xmwPuSG6tV3epFH5ZENX87mYu3x_IYB8SVwaDdp3VH1li4mgXbkNWkz1m9Pc0UpwLN4wt-xCNvzLn33T4uugRM-P1_ng6F4J19S94QNY8jQSUkHoAE7ASJby52FwCc2E4SJJ308mYCK8LSQFqIzTnI1_QaJB2qOu6Hv2N9DMDSioJ5_jqF8lePh-bCWZQdZNxP9yx2GFqE9FGKsg-L7e13RO8sgV7dJsS2zSoCam8k0jHtWo-vwAZM0A9413x974MHXaakRCFxWKOAyIII_Uq-QNvc-bkTdnWKyRbbeJ1o7m01xijLGy29381IfzZb8FUeu4uX6UkJKpr3dWK2gfnaRNTAu8bDpE8V6ipy5b83367VT1yyHQYJAGKEbv3cqlq5gaI5foK-dNF87k-jnR9DqAPIS8KCoQFngjn8je7o9rcEI1uNybdr0QuhsG-jg5Yk-ZM7XMIXBLC5bAtZSbexkUKNpD0ByFjWjm4r5oTjSU4qk7YRLlkoyPFpjh_f9fT-3z5i_dUgvbTSqYo15DBC5eNg6LKHwt754gDg8aYj3wrMj1edxeUDmND1cefXM81qCK4ZPEM1G4ZWcjyylx8VrKej4b7vK_GgmFsshtChGpZD5KJLrjO0PEUp68gMpaRIRQDT-TJsi8qEOIWcGbPADsjHCihbAYPeT72DjYjTcxX8ju9bLm_9GihcykjRg_gxGg-SwkSjuEgKnYtgZJENidtAvEV_xP09Vy9qZhn2JJijqrBeuuIQwrj5tqz1ZEZQT1umkXusojLImusZfkS8dCpqV5ZmpnHd6yMTdCvWWb_8pZurbjVGkNnqV17CLvebOGE-I_drGeAwmKbXZrWsdTOyptsh6_H-ZQjRzLwTYr8Zo92QFnKkxwQyt3ZqUpwuHFhyCu81J9QeIPPIRj_0G00]--></g></svg>