<svg xmlns="http://www.w3.org/2000/svg" xmlns:xlink="http://www.w3.org/1999/xlink" contentStyleType="text/css" height="800px" preserveAspectRatio="none" style="width:1575px;height:800px;background:#FFFFFF;" version="1.1" viewBox="0 0 1575 800" width="1575px" zoomAndPan="magnify"><title>CI Pipeline for TurboWinPlus</title><defs/><g><text fill="#000000" font-family="sans-serif" font-size="14" font-weight="bold" lengthAdjust="spacing" textLength="248.6951" x="661.8793" y="34.9659">CI Pipeline for TurboWinPlus</text><rect fill="#F1F1F1" height="36.3441" rx="12.5" ry="12.5" style="stroke:#181818;stroke-width:0.5;" width="214.5214" x="680.4661" y="51.0679"/><text fill="#000000" font-family="sans-serif" font-size="12" lengthAdjust="spacing" textLength="194.5214" x="690.4661" y="73.896">Code change pushed to repository</text><rect fill="none" height="186.0309" style="stroke:#000000;stroke-width:1.5;" width="1553.4537" x="11" y="97.412"/><path d="M95.3257,97.412 L95.3257,109.4799 L85.3257,119.4799 L11,119.4799 " fill="none" style="stroke:#000000;stroke-width:1.5;"/><text fill="#000000" font-family="sans-serif" font-size="14" lengthAdjust="spacing" textLength="74.3257" x="14" y="113.378">Build Stage</text><rect fill="#555555" height="6" rx="2.5" ry="2.5" style="stroke:#555555;stroke-width:1.0;" width="1533.4537" x="21" y="136.4799"/><path d="M87.7841,161.333 L87.7841,188.892 L67.7841,192.892 L87.7841,196.892 L87.7841,224.451 A0,0 0 0 0 87.7841,224.451 L276.4063,224.451 A0,0 0 0 0 276.4063,224.451 L276.4063,171.333 L266.4063,161.333 L87.7841,161.333 A0,0 0 0 0 87.7841,161.333 " fill="#FEFFDD" style="stroke:#181818;stroke-width:0.5;"/><path d="M266.4063,161.333 L266.4063,171.333 L276.4063,171.333 L266.4063,161.333 " fill="#FEFFDD" style="stroke:#181818;stroke-width:0.5;"/><text fill="#000000" font-family="sans-serif" font-size="13" lengthAdjust="spacing" textLength="111.6571" x="93.7841" y="180.23">On Linux (amd64):</text><text fill="#000000" font-family="sans-serif" font-size="13" lengthAdjust="spacing" textLength="167.6222" x="93.7841" y="197.936">- Install build dependencies</text><text fill="#000000" font-family="sans-serif" font-size="13" lengthAdjust="spacing" textLength="110.0191" x="93.7841" y="215.642">- Run Gradle build</text><rect fill="#F1F1F1" height="36.3441" rx="12.5" ry="12.5" style="stroke:#181818;stroke-width:0.5;" width="34.7841" x="33" y="174.7199"/><text fill="#000000" font-family="sans-serif" font-size="12" lengthAdjust="spacing" textLength="14.7841" x="43" y="197.548">jar</text><path d="M347.5864,152.4799 L347.5864,188.892 L327.5864,192.892 L347.5864,196.892 L347.5864,233.304 A0,0 0 0 0 347.5864,233.304 L556.7876,233.304 A0,0 0 0 0 556.7876,233.304 L556.7876,162.4799 L546.7876,152.4799 L347.5864,152.4799 A0,0 0 0 0 347.5864,152.4799 " fill="#FEFFDD" style="stroke:#181818;stroke-width:0.5;"/><path d="M546.7876,152.4799 L546.7876,162.4799 L556.7876,162.4799 L546.7876,152.4799 " fill="#FEFFDD" style="stroke:#181818;stroke-width:0.5;"/><text fill="#000000" font-family="sans-serif" font-size="13" lengthAdjust="spacing" textLength="111.6571" x="353.5864" y="171.377">On Linux (amd64):</text><text fill="#000000" font-family="sans-serif" font-size="13" lengthAdjust="spacing" textLength="179.2182" x="353.5864" y="189.083">- Install testing dependencies</text><text fill="#000000" font-family="sans-serif" font-size="13" lengthAdjust="spacing" textLength="134.4461" x="353.5864" y="206.789">- Set up virtual display</text><text fill="#000000" font-family="sans-serif" font-size="13" lengthAdjust="spacing" textLength="188.2012" x="353.5864" y="224.495">- Run tests with screen capture</text><rect fill="#F1F1F1" height="36.3441" rx="12.5" ry="12.5" style="stroke:#181818;stroke-width:0.5;" width="41.1802" x="286.4063" y="174.7199"/><text fill="#000000" font-family="sans-serif" font-size="12" lengthAdjust="spacing" textLength="21.1802" x="296.4063" y="197.548">test</text><path d="M646.3158,161.333 L646.3158,188.892 L626.3158,192.892 L646.3158,196.892 L646.3158,224.451 A0,0 0 0 0 646.3158,224.451 L890.513,224.451 A0,0 0 0 0 890.513,224.451 L890.513,171.333 L880.513,161.333 L646.3158,161.333 A0,0 0 0 0 646.3158,161.333 " fill="#FEFFDD" style="stroke:#181818;stroke-width:0.5;"/><path d="M880.513,161.333 L880.513,171.333 L890.513,171.333 L880.513,161.333 " fill="#FEFFDD" style="stroke:#181818;stroke-width:0.5;"/><text fill="#000000" font-family="sans-serif" font-size="13" lengthAdjust="spacing" textLength="111.6571" x="652.3158" y="180.23">On Linux (amd64):</text><text fill="#000000" font-family="sans-serif" font-size="13" lengthAdjust="spacing" textLength="167.6222" x="652.3158" y="197.936">- Install build dependencies</text><text fill="#000000" font-family="sans-serif" font-size="13" lengthAdjust="spacing" textLength="223.1972" x="652.3158" y="215.642">- Build and package for Linux amd64</text><rect fill="#F1F1F1" height="36.3441" rx="12.5" ry="12.5" style="stroke:#181818;stroke-width:0.5;" width="41.5282" x="584.7876" y="174.7199"/><text fill="#000000" font-family="sans-serif" font-size="12" lengthAdjust="spacing" textLength="21.5282" x="594.7876" y="197.548">deb</text><path d="M982.0691,161.333 L982.0691,188.892 L962.0691,192.892 L982.0691,196.892 L982.0691,224.451 A0,0 0 0 0 982.0691,224.451 L1226.2663,224.451 A0,0 0 0 0 1226.2663,224.451 L1226.2663,171.333 L1216.2663,161.333 L982.0691,161.333 A0,0 0 0 0 982.0691,161.333 " fill="#FEFFDD" style="stroke:#181818;stroke-width:0.5;"/><path d="M1216.2663,161.333 L1216.2663,171.333 L1226.2663,171.333 L1216.2663,161.333 " fill="#FEFFDD" style="stroke:#181818;stroke-width:0.5;"/><text fill="#000000" font-family="sans-serif" font-size="13" lengthAdjust="spacing" textLength="111.6571" x="988.0691" y="180.23">On Linux (amd64):</text><text fill="#000000" font-family="sans-serif" font-size="13" lengthAdjust="spacing" textLength="167.6222" x="988.0691" y="197.936">- Install build dependencies</text><text fill="#000000" font-family="sans-serif" font-size="13" lengthAdjust="spacing" textLength="223.1972" x="988.0691" y="215.642">- Build and package for Linux amd64</text><rect fill="#F1F1F1" height="36.3441" rx="12.5" ry="12.5" style="stroke:#181818;stroke-width:0.5;" width="43.5562" x="918.513" y="174.7199"/><text fill="#000000" font-family="sans-serif" font-size="12" lengthAdjust="spacing" textLength="23.5562" x="928.513" y="197.548">rpm</text><path d="M1296.1505,161.333 L1296.1505,188.892 L1276.1505,192.892 L1296.1505,196.892 L1296.1505,224.451 A0,0 0 0 0 1296.1505,224.451 L1542.4537,224.451 A0,0 0 0 0 1542.4537,224.451 L1542.4537,171.333 L1532.4537,161.333 L1296.1505,161.333 A0,0 0 0 0 1296.1505,161.333 " fill="#FEFFDD" style="stroke:#181818;stroke-width:0.5;"/><path d="M1532.4537,161.333 L1532.4537,171.333 L1542.4537,171.333 L1532.4537,161.333 " fill="#FEFFDD" style="stroke:#181818;stroke-width:0.5;"/><text fill="#000000" font-family="sans-serif" font-size="13" lengthAdjust="spacing" textLength="202.7612" x="1302.1505" y="180.23">On Windows Server 2022 (64-bit):</text><text fill="#000000" font-family="sans-serif" font-size="13" lengthAdjust="spacing" textLength="193.5702" x="1302.1505" y="197.936">- Download JDK (64-bit) and WiX</text><text fill="#000000" font-family="sans-serif" font-size="13" lengthAdjust="spacing" textLength="225.3032" x="1302.1505" y="215.642">- Build and package for Windows x64</text><rect fill="#F1F1F1" height="36.3441" rx="12.5" ry="12.5" style="stroke:#181818;stroke-width:0.5;" width="39.8841" x="1236.2663" y="174.7199"/><text fill="#000000" font-family="sans-serif" font-size="12" lengthAdjust="spacing" textLength="19.8841" x="1246.2663" y="197.548">exe</text><rect fill="#555555" height="6" rx="2.5" ry="2.5" style="stroke:#555555;stroke-width:1.0;" width="1533.4537" x="21" y="265.4429"/><rect fill="none" height="160.304" style="stroke:#000000;stroke-width:1.5;" width="367.5909" x="723.8425" y="293.4429"/><path d="M788.3863,293.4429 L788.3863,305.5109 L778.3863,315.5109 L723.8425,315.5109 " fill="none" style="stroke:#000000;stroke-width:1.5;"/><text fill="#000000" font-family="sans-serif" font-size="14" lengthAdjust="spacing" textLength="54.5438" x="726.8425" y="309.4089">Artifacts</text><path d="M861.6112,325.5109 L861.6112,379.6289 L841.6112,383.6289 L861.6112,387.6289 L861.6112,441.747 A0,0 0 0 0 861.6112,441.747 L1081.4334,441.747 A0,0 0 0 0 1081.4334,441.747 L1081.4334,335.5109 L1071.4334,325.5109 L861.6112,325.5109 A0,0 0 0 0 861.6112,325.5109 " fill="#FEFFDD" style="stroke:#181818;stroke-width:0.5;"/><path d="M1071.4334,325.5109 L1071.4334,335.5109 L1081.4334,335.5109 L1071.4334,325.5109 " fill="#FEFFDD" style="stroke:#181818;stroke-width:0.5;"/><text fill="#000000" font-family="sans-serif" font-size="13" lengthAdjust="spacing" textLength="121.3421" x="867.6112" y="344.4079">Generated artifacts:</text><text fill="#000000" font-family="sans-serif" font-size="13" lengthAdjust="spacing" textLength="164.2162" x="867.6112" y="362.1139">- Optional: turbowin-4.x.jar</text><text fill="#000000" font-family="sans-serif" font-size="13" lengthAdjust="spacing" textLength="142.0121" x="867.6112" y="379.8199">- screen_capture.webm</text><text fill="#000000" font-family="sans-serif" font-size="13" lengthAdjust="spacing" textLength="198.8222" x="867.6112" y="397.5259">- turbowinplus_4.x-1_amd64.deb</text><text fill="#000000" font-family="sans-serif" font-size="13" lengthAdjust="spacing" textLength="197.2232" x="867.6112" y="415.2319">- turbowinplus-4.x-1.x86_64.rpm</text><text fill="#000000" font-family="sans-serif" font-size="13" lengthAdjust="spacing" textLength="180.8952" x="867.6112" y="432.938">- TurboWinPlus-4.x_64-bit.exe</text><rect fill="#F1F1F1" height="36.3441" rx="12.5" ry="12.5" style="stroke:#181818;stroke-width:0.5;" width="107.7687" x="733.8425" y="365.4568"/><text fill="#000000" font-family="sans-serif" font-size="12" lengthAdjust="spacing" textLength="87.7687" x="743.8425" y="388.2849">Collect Artifacts</text><rect fill="none" height="269.01" style="stroke:#000000;stroke-width:1.5;" width="533.1927" x="498.3423" y="463.747"/><path d="M618.2139,463.747 L618.2139,475.8149 L608.2139,485.8149 L498.3423,485.8149 " fill="none" style="stroke:#000000;stroke-width:1.5;"/><text fill="#000000" font-family="sans-serif" font-size="14" lengthAdjust="spacing" textLength="109.8716" x="501.3423" y="479.7129">Optional Signing</text><polygon fill="#F1F1F1" points="711.9539,502.8149,863.4998,502.8149,875.4998,514.8149,863.4998,526.8149,711.9539,526.8149,699.9539,514.8149,711.9539,502.8149" style="stroke:#181818;stroke-width:0.5;"/><text fill="#000000" font-family="sans-serif" font-size="11" lengthAdjust="spacing" textLength="151.546" x="711.9539" y="519.0828">Sign Installers and Packages?</text><text fill="#000000" font-family="sans-serif" font-size="11" lengthAdjust="spacing" textLength="17.6989" x="682.255" y="511.5919">Yes</text><text fill="#000000" font-family="sans-serif" font-size="11" lengthAdjust="spacing" textLength="15.0149" x="875.4998" y="511.5919">No</text><path d="M718.4594,536.8149 L718.4594,564.3739 L698.4594,568.3739 L718.4594,572.3739 L718.4594,599.9329 A0,0 0 0 0 718.4594,599.9329 L902.5706,599.9329 A0,0 0 0 0 902.5706,599.9329 L902.5706,546.8149 L892.5706,536.8149 L718.4594,536.8149 A0,0 0 0 0 718.4594,536.8149 " fill="#FEFFDD" style="stroke:#181818;stroke-width:0.5;"/><path d="M892.5706,536.8149 L892.5706,546.8149 L902.5706,546.8149 L892.5706,536.8149 " fill="#FEFFDD" style="stroke:#181818;stroke-width:0.5;"/><text fill="#000000" font-family="sans-serif" font-size="13" lengthAdjust="spacing" textLength="163.1111" x="724.4594" y="555.7119">- Sign Windows executable</text><text fill="#000000" font-family="sans-serif" font-size="13" lengthAdjust="spacing" textLength="117.1041" x="724.4594" y="573.4179">- Sign DEB package</text><text fill="#000000" font-family="sans-serif" font-size="13" lengthAdjust="spacing" textLength="119.6781" x="724.4594" y="591.1239">- Sign RPM package</text><rect fill="#F1F1F1" height="36.3441" rx="12.5" ry="12.5" style="stroke:#181818;stroke-width:0.5;" width="180.1171" x="518.3423" y="550.2018"/><text fill="#000000" font-family="sans-serif" font-size="12" lengthAdjust="spacing" textLength="160.1171" x="528.3423" y="573.0299">Sign Installers and Packages</text><path d="M682.6512,609.9329 L682.6512,646.345 L662.6512,650.345 L682.6512,654.345 L682.6512,690.757 A0,0 0 0 0 682.6512,690.757 L902.4734,690.757 A0,0 0 0 0 902.4734,690.757 L902.4734,619.9329 L892.4734,609.9329 L682.6512,609.9329 A0,0 0 0 0 682.6512,609.9329 " fill="#FEFFDD" style="stroke:#181818;stroke-width:0.5;"/><path d="M892.4734,609.9329 L892.4734,619.9329 L902.4734,619.9329 L892.4734,609.9329 " fill="#FEFFDD" style="stroke:#181818;stroke-width:0.5;"/><text fill="#000000" font-family="sans-serif" font-size="13" lengthAdjust="spacing" textLength="98.3451" x="688.6512" y="628.8299">Signed artifacts:</text><text fill="#000000" font-family="sans-serif" font-size="13" lengthAdjust="spacing" textLength="198.8222" x="688.6512" y="646.536">- turbowinplus_4.x-1_amd64.deb</text><text fill="#000000" font-family="sans-serif" font-size="13" lengthAdjust="spacing" textLength="197.2232" x="688.6512" y="664.242">- turbowinplus-4.x-1.x86_64.rpm</text><text fill="#000000" font-family="sans-serif" font-size="13" lengthAdjust="spacing" textLength="180.8952" x="688.6512" y="681.948">- TurboWinPlus-4.x_64-bit.exe</text><rect fill="#F1F1F1" height="36.3441" rx="12.5" ry="12.5" style="stroke:#181818;stroke-width:0.5;" width="108.5006" x="554.1505" y="632.1729"/><text fill="#000000" font-family="sans-serif" font-size="12" lengthAdjust="spacing" textLength="88.5006" x="564.1505" y="655.001">Signed Artifacts</text><rect fill="#F1F1F1" height="36.3441" rx="12.5" ry="12.5" style="stroke:#181818;stroke-width:0.5;" width="88.9645" x="922.5706" y="536.8149"/><text fill="#000000" font-family="sans-serif" font-size="12" lengthAdjust="spacing" textLength="68.9645" x="932.5706" y="559.643">Skip Signing</text><polygon fill="#F1F1F1" points="787.7268,696.757,799.7268,708.757,787.7268,720.757,775.7268,708.757,787.7268,696.757" style="stroke:#181818;stroke-width:0.5;"/><rect fill="#F1F1F1" height="36.3441" rx="12.5" ry="12.5" style="stroke:#181818;stroke-width:0.5;" width="133.8808" x="720.7864" y="752.757"/><text fill="#000000" font-family="sans-serif" font-size="12" lengthAdjust="spacing" textLength="113.8808" x="730.7864" y="775.5851">Release of packages</text><line style="stroke:#181818;stroke-width:1.0;" x1="50.3921" x2="50.3921" y1="142.4799" y2="174.7199"/><polygon fill="#181818" points="46.3921,164.7199,50.3921,174.7199,54.3921,164.7199,50.3921,168.7199" style="stroke:#181818;stroke-width:1.0;"/><line style="stroke:#181818;stroke-width:1.0;" x1="306.9963" x2="306.9963" y1="142.4799" y2="174.7199"/><polygon fill="#181818" points="302.9963,164.7199,306.9963,174.7199,310.9963,164.7199,306.9963,168.7199" style="stroke:#181818;stroke-width:1.0;"/><line style="stroke:#181818;stroke-width:1.0;" x1="605.5517" x2="605.5517" y1="142.4799" y2="174.7199"/><polygon fill="#181818" points="601.5517,164.7199,605.5517,174.7199,609.5517,164.7199,605.5517,168.7199" style="stroke:#181818;stroke-width:1.0;"/><line style="stroke:#181818;stroke-width:1.0;" x1="940.2911" x2="940.2911" y1="142.4799" y2="174.7199"/><polygon fill="#181818" points="936.2911,164.7199,940.2911,174.7199,944.2911,164.7199,940.2911,168.7199" style="stroke:#181818;stroke-width:1.0;"/><line style="stroke:#181818;stroke-width:1.0;" x1="1256.2084" x2="1256.2084" y1="142.4799" y2="174.7199"/><polygon fill="#181818" points="1252.2084,164.7199,1256.2084,174.7199,1260.2084,164.7199,1256.2084,168.7199" style="stroke:#181818;stroke-width:1.0;"/><line style="stroke:#181818;stroke-width:1.0;" x1="50.3921" x2="50.3921" y1="211.064" y2="265.4429"/><polygon fill="#181818" points="46.3921,255.4429,50.3921,265.4429,54.3921,255.4429,50.3921,259.4429" style="stroke:#181818;stroke-width:1.0;"/><text fill="#000000" font-family="sans-serif" font-size="11" lengthAdjust="spacing" textLength="82.1144" x="54.3921" y="243.9429">turbowin-4.x.jar</text><line style="stroke:#181818;stroke-width:1.0;" x1="306.9963" x2="306.9963" y1="211.064" y2="265.4429"/><polygon fill="#181818" points="302.9963,255.4429,306.9963,265.4429,310.9963,255.4429,306.9963,259.4429" style="stroke:#181818;stroke-width:1.0;"/><text fill="#000000" font-family="sans-serif" font-size="11" lengthAdjust="spacing" textLength="113.7612" x="310.9963" y="243.9429">screen_capture.webm</text><line style="stroke:#181818;stroke-width:1.0;" x1="605.5517" x2="605.5517" y1="211.064" y2="265.4429"/><polygon fill="#181818" points="601.5517,255.4429,605.5517,265.4429,609.5517,255.4429,605.5517,259.4429" style="stroke:#181818;stroke-width:1.0;"/><text fill="#000000" font-family="sans-serif" font-size="11" lengthAdjust="spacing" textLength="161.8308" x="609.5517" y="243.9429">turbowinplus_4.x-1_amd64.deb</text><line style="stroke:#181818;stroke-width:1.0;" x1="940.2911" x2="940.2911" y1="211.064" y2="265.4429"/><polygon fill="#181818" points="936.2911,255.4429,940.2911,265.4429,944.2911,255.4429,940.2911,259.4429" style="stroke:#181818;stroke-width:1.0;"/><text fill="#000000" font-family="sans-serif" font-size="11" lengthAdjust="spacing" textLength="160.4778" x="944.2911" y="243.9429">turbowinplus-4.x-1.x86_64.rpm</text><line style="stroke:#181818;stroke-width:1.0;" x1="1256.2084" x2="1256.2084" y1="211.064" y2="265.4429"/><polygon fill="#181818" points="1252.2084,255.4429,1256.2084,265.4429,1260.2084,255.4429,1256.2084,259.4429" style="stroke:#181818;stroke-width:1.0;"/><text fill="#000000" font-family="sans-serif" font-size="11" lengthAdjust="spacing" textLength="146.6619" x="1260.2084" y="243.9429">TurboWinPlus-4.x_64-bit.exe</text><line style="stroke:#181818;stroke-width:1.0;" x1="787.7268" x2="787.7268" y1="87.412" y2="136.4799"/><polygon fill="#181818" points="783.7268,126.4799,787.7268,136.4799,791.7268,126.4799,787.7268,130.4799" style="stroke:#181818;stroke-width:1.0;"/><line style="stroke:#181818;stroke-width:1.0;" x1="787.7268" x2="787.7268" y1="271.4429" y2="365.4568"/><polygon fill="#181818" points="783.7268,355.4568,787.7268,365.4568,791.7268,355.4568,787.7268,359.4568" style="stroke:#181818;stroke-width:1.0;"/><line style="stroke:#181818;stroke-width:1.0;" x1="608.4009" x2="608.4009" y1="586.546" y2="632.1729"/><polygon fill="#181818" points="604.4009,622.1729,608.4009,632.1729,612.4009,622.1729,608.4009,626.1729" style="stroke:#181818;stroke-width:1.0;"/><line style="stroke:#181818;stroke-width:1.0;" x1="699.9539" x2="608.4009" y1="514.8149" y2="514.8149"/><line style="stroke:#181818;stroke-width:1.0;" x1="608.4009" x2="608.4009" y1="514.8149" y2="550.2018"/><polygon fill="#181818" points="604.4009,540.2018,608.4009,550.2018,612.4009,540.2018,608.4009,544.2018" style="stroke:#181818;stroke-width:1.0;"/><line style="stroke:#181818;stroke-width:1.0;" x1="875.4998" x2="967.0528" y1="514.8149" y2="514.8149"/><line style="stroke:#181818;stroke-width:1.0;" x1="967.0528" x2="967.0528" y1="514.8149" y2="536.8149"/><polygon fill="#181818" points="963.0528,526.8149,967.0528,536.8149,971.0528,526.8149,967.0528,530.8149" style="stroke:#181818;stroke-width:1.0;"/><line style="stroke:#181818;stroke-width:1.0;" x1="608.4009" x2="608.4009" y1="668.517" y2="708.757"/><line style="stroke:#181818;stroke-width:1.0;" x1="608.4009" x2="775.7268" y1="708.757" y2="708.757"/><polygon fill="#181818" points="765.7268,704.757,775.7268,708.757,765.7268,712.757,769.7268,708.757" style="stroke:#181818;stroke-width:1.0;"/><line style="stroke:#181818;stroke-width:1.0;" x1="967.0528" x2="967.0528" y1="573.159" y2="708.757"/><line style="stroke:#181818;stroke-width:1.0;" x1="967.0528" x2="799.7268" y1="708.757" y2="708.757"/><polygon fill="#181818" points="809.7268,704.757,799.7268,708.757,809.7268,712.757,805.7268,708.757" style="stroke:#181818;stroke-width:1.0;"/><line style="stroke:#181818;stroke-width:1.0;" x1="787.7268" x2="787.7268" y1="401.801" y2="502.8149"/><polygon fill="#181818" points="783.7268,492.8149,787.7268,502.8149,791.7268,492.8149,787.7268,496.8149" style="stroke:#181818;stroke-width:1.0;"/><line style="stroke:#181818;stroke-width:1.0;" x1="787.7268" x2="787.7268" y1="720.757" y2="752.757"/><polygon fill="#181818" points="783.7268,742.757,787.7268,752.757,791.7268,742.757,787.7268,746.757" style="stroke:#181818;stroke-width:1.0;"/><!--SRC=[rPLHJzim4CVVyobEF9M7L1j2Q2g8QOK9iR5HbKcCfyf9hgbNrxPiXnPDVFUT7HBI9fGYJPEMfzQ-i-zt_tykTiwbPeOjm63gcCm5mky8w1coT9uRLSZiJ0bbJaw61HSPt3YMu-afNF5yveQYmExWJyRnAKkThKBlK0Yrx0w-reuhoGJSy5nocLSv5uOzH8zHvBYZiYwuks89d5t2Y6iKN29CbO4VXKdKBPSZKTWe6fof326T4Gc2BkmCCt2AuBIot2dpS1n5n4idqesmrs3QWqt4iWzqnppyyC_W5pF7zJ-f78BnbTPB_hcMLBuiLj1ZY-peS7-mjXl3fRIE2G59k2r3ZJ93cNAq6u7ZGWBr82Fu45jlKqAul5w8Jy7vFYovZ0_xgtvTfgyUMCwuV6PmQDrVW_27aMJRC6xGGQ7XdXjNaCWPjrgGi6rMVvQ59NSpiAb1b90oJLou5RmCdJo5zfUOB5vcpp3vT_gLTc9KioRBawc2OSkpmz4x2Qh9s1CIDNu_2Kdzcg4BqEZ5_mWO1y3-wiFHX0XhY2v2NE4kX3GIChMqv3vpZmOEtXqSGE_eC4wuQm6VgwKKYcNmvVnh7HIuRldFdPYhsrQlC3UdbMUUb9VrQoYV54REuzgWgkUf7rFDuLeEAHfxGj00XtghFAsZFHSeqJ17Sv5LiS_jYA6QnOFMG6a4TRnoZTrjndqXh2L_8svBowArDgztRFEZuXlNyQ4f-yUdqFDhbVNHs23ng9JOVjm7DwDvrBj3k_zinMqfhteq3bNKpY6Sj70i4TWLTVvvMFcjQtiy-jRQRjalb4kwRtXaIubF2Hr6UOFIRr5xDyLRT2WiGk-xQaepvxgIkNwp-DIRP316WOmorBHgcZt-0m00]--></g></svg>